<svg xmlns="http://www.w3.org/2000/svg" width="48" height="48" viewBox="0 0 48 48" fill="none">
  <path d="M0 6C0 2.68629 2.68629 0 6 0H42C45.3137 0 48 2.68629 48 6V42C48 45.3137 45.3137 48 42 48H6C2.68629 48 0 45.3137 0 42V6Z" fill="#D9DDFF"/>
  <path d="M12 23.5711C12 22.9497 12.5037 22.4461 13.125 22.4461C13.7463 22.4461 14.25 22.9497 14.25 23.5711V27.3211C14.25 27.9424 13.7463 28.4461 13.125 28.4461C12.5037 28.4461 12 27.9424 12 27.3211V23.5711Z" fill="url(#paint0_linear_25758_13579)"/>
  <path d="M17.25 20.5711C17.25 19.9497 17.7537 19.4461 18.375 19.4461C18.9963 19.4461 19.5 19.9497 19.5 20.5711V30.3211C19.5 30.9424 18.9963 31.4461 18.375 31.4461C17.7537 31.4461 17.25 30.9424 17.25 30.3211V20.5711Z" fill="url(#paint1_linear_25758_13579)"/>
  <path d="M22.5 16.8211C22.5 16.1997 23.0037 15.6961 23.625 15.6961C24.2463 15.6961 24.75 16.1997 24.75 16.8211V34.0711C24.75 34.6924 24.2463 35.1961 23.625 35.1961C23.0037 35.1961 22.5 34.6924 22.5 34.0711V16.8211Z" fill="url(#paint2_linear_25758_13579)"/>
  <path d="M27.75 20.5711C27.75 19.9497 28.2537 19.4461 28.875 19.4461C29.4963 19.4461 30 19.9497 30 20.5711V30.3211C30 30.9424 29.4963 31.4461 28.875 31.4461C28.2537 31.4461 27.75 30.9424 27.75 30.3211V20.5711Z" fill="url(#paint3_linear_25758_13579)"/>
  <path d="M33 23.5711C33 22.9497 33.5037 22.4461 34.125 22.4461C34.7463 22.4461 35.25 22.9497 35.25 23.5711V27.3211C35.25 27.9424 34.7463 28.4461 34.125 28.4461C33.5037 28.4461 33 27.9424 33 27.3211V23.5711Z" fill="url(#paint4_linear_25758_13579)"/>
  <path d="M32.4648 12.1521C32.7079 10.9493 34.4271 10.9493 34.6702 12.1521L34.882 13.1998C34.9696 13.6334 35.3032 13.9754 35.7344 14.0738L37.0103 14.3649C38.1766 14.631 38.1766 16.2924 37.0103 16.5585L35.7344 16.8496C35.3032 16.948 34.9696 17.29 34.882 17.7235L34.6702 18.7712C34.4271 19.9741 32.7079 19.9741 32.4648 18.7712L32.2531 17.7235C32.1654 17.29 31.8319 16.948 31.4006 16.8496L30.1248 16.5585C28.9584 16.2924 28.9584 14.631 30.1248 14.3649L31.4006 14.0738C31.8319 13.9754 32.1654 13.6334 32.2531 13.1998L32.4648 12.1521Z" fill="url(#paint5_linear_25758_13579)"/>
  <defs>
    <linearGradient id="paint0_linear_25758_13579" x1="28.6452" y1="-8.17496" x2="51.9903" y2="30.9847" gradientUnits="userSpaceOnUse">
      <stop offset="0.138176" stop-color="#134CFF"/>
      <stop offset="0.737837" stop-color="#E33FE6"/>
    </linearGradient>
    <linearGradient id="paint1_linear_25758_13579" x1="28.6452" y1="-8.17496" x2="51.9903" y2="30.9847" gradientUnits="userSpaceOnUse">
      <stop offset="0.138176" stop-color="#134CFF"/>
      <stop offset="0.737837" stop-color="#E33FE6"/>
    </linearGradient>
    <linearGradient id="paint2_linear_25758_13579" x1="28.6452" y1="-8.17496" x2="51.9903" y2="30.9847" gradientUnits="userSpaceOnUse">
      <stop offset="0.138176" stop-color="#134CFF"/>
      <stop offset="0.737837" stop-color="#E33FE6"/>
    </linearGradient>
    <linearGradient id="paint3_linear_25758_13579" x1="28.6452" y1="-8.17496" x2="51.9903" y2="30.9847" gradientUnits="userSpaceOnUse">
      <stop offset="0.138176" stop-color="#134CFF"/>
      <stop offset="0.737837" stop-color="#E33FE6"/>
    </linearGradient>
    <linearGradient id="paint4_linear_25758_13579" x1="28.6452" y1="-8.17496" x2="51.9903" y2="30.9847" gradientUnits="userSpaceOnUse">
      <stop offset="0.138176" stop-color="#134CFF"/>
      <stop offset="0.737837" stop-color="#E33FE6"/>
    </linearGradient>
    <linearGradient id="paint5_linear_25758_13579" x1="33.5674" y1="7.9788" x2="33.5674" y2="22.9446" gradientUnits="userSpaceOnUse">
      <stop offset="0.138176" stop-color="#134CFF"/>
      <stop offset="0.737837" stop-color="#E33FE6"/>
    </linearGradient>
  </defs>
</svg>